<?xml version="1.0" encoding="UTF-8"?><svg id="a" xmlns="http://www.w3.org/2000/svg" viewBox="0 0 4035.38 524.13"><defs><style>.b{fill:#fff;}.c{fill:#00e701;}</style></defs><polygon class="c" points="2339.2 0 2436.68 0 2811.15 510.83 2712.6 510.83 2339.2 0"/><polygon class="c" points="2339.2 0 2455.86 159.59 2455.86 510.83 2339.2 510.83 2339.2 0"/><polygon class="c" points="2692.89 0 2811.15 0 2811.15 397.9 2692.89 249.82 2692.89 0"/><path class="b" d="M3322.34,303.63c0,121.88-100.83,220.5-228.81,220.5s-229.36-98.62-229.36-220.5,100.28-219.39,229.36-219.39,228.81,98.06,228.81,219.39ZM2963.34,304.18c0,71.47,56.51,129.64,130.19,129.64s129.64-58.17,129.64-129.64-56.51-129.64-129.64-129.64-130.19,57.62-130.19,129.64Z"/><path class="b" d="M1055.58,449.33h-165.1l-22.16,61.5h-102.49l160.11-413.3h97.51l160.11,413.3h-105.82l-22.16-61.5ZM1027.88,371.77l-54.29-151.25-54.85,151.25h109.14Z"/><path class="b" d="M1404.18,524.13c-129.09,0-229.36-98.62-229.36-220.5s100.28-219.39,229.36-219.39c60.39,0,117.45,23.27,156.23,58.17l-63.16,70.36c-24.38-24.38-57.62-38.23-93.07-38.23-73.68,0-130.19,57.62-130.19,129.09s56.51,130.19,130.19,130.19c61.08,0,90.86-33.79,104.71-79.22h-149.52l80.27-79.22h173.96v27.7c0,124.1-91.97,221.05-209.42,221.05Z"/><path class="b" d="M1671.71,97.53h239.33v86.98h-140.72v75.9h126.32v79.22h-126.32v84.21h145.15v86.98h-243.77V97.53Z"/><path class="b" d="M2070.82,372.88h-6.09v137.95h-98.62V97.53h118.56c81.44,0,162.33,29.92,162.33,140.17,0,54.85-32.69,93.07-75.35,114.13l115.24,159h-118.01l-98.06-137.95ZM2064.72,185.07v110.25h22.71c38.78,0,62.05-19.94,62.05-55.95s-25.48-54.29-62.05-54.29h-22.71Z"/><polygon class="c" points="870.6 0 756.76 0 559.69 510.83 685.81 510.83 870.6 0"/><polygon class="c" points="495.7 0 381.86 0 184.79 510.83 310.91 510.83 495.7 0"/><polygon class="c" points="0 0 113.84 0 310.91 510.83 184.79 510.83 0 0"/><polygon class="c" points="381.8 0 495.64 0 591.99 248.97 529.33 407.83 381.8 0"/><polygon class="b" points="4035.38 110.83 3943.28 110.83 3783.84 524.13 3885.88 524.13 4035.38 110.83"/><polygon class="b" points="3726.39 110.83 3634.29 110.83 3474.85 524.13 3576.89 524.13 3726.39 110.83"/><polygon class="b" points="3325.34 110.83 3417.45 110.83 3576.89 524.13 3474.85 524.13 3325.34 110.83"/><polygon class="b" points="3634.24 110.83 3726.35 110.83 3885.79 524.13 3783.75 524.13 3634.24 110.83"/></svg>